<mxfile host="app.diagrams.net" modified="2024-05-24T10:33:13.884Z" agent="Mozilla/5.0 (X11; Linux x86_64; rv:126.0) Gecko/20100101 Firefox/126.0" etag="NIUDiV-tWq3JfW7-tyJa" version="24.4.7" type="github">
  <diagram id="C5RBs43oDa-KdzZeNtuy" name="Page-1">
    <mxGraphModel dx="3812" dy="4318" grid="1" gridSize="10" guides="1" tooltips="1" connect="1" arrows="1" fold="1" page="1" pageScale="1" pageWidth="827" pageHeight="1169" math="0" shadow="0">
      <root>
        <mxCell id="WIyWlLk6GJQsqaUBKTNV-0" />
        <mxCell id="WIyWlLk6GJQsqaUBKTNV-1" parent="WIyWlLk6GJQsqaUBKTNV-0" />
        <mxCell id="GbpuS-4HLD2tTJXpjmer-0" value="&lt;pre&gt;&lt;code&gt;Concours&lt;/code&gt;&lt;/pre&gt;" style="swimlane;fontStyle=0;childLayout=stackLayout;horizontal=1;startSize=30;horizontalStack=0;resizeParent=1;resizeParentMax=0;resizeLast=0;collapsible=1;marginBottom=0;whiteSpace=wrap;html=1;labelBackgroundColor=none;fillColor=#F2CC8F;strokeColor=#E07A5F;fontColor=#393C56;" parent="WIyWlLk6GJQsqaUBKTNV-1" vertex="1">
          <mxGeometry x="-136.5" y="-2060" width="250" height="180" as="geometry" />
        </mxCell>
        <mxCell id="GbpuS-4HLD2tTJXpjmer-1" value="&lt;pre&gt;&lt;code class=&quot;!whitespace-pre hljs language-plaintext&quot;&gt;- id: int&lt;/code&gt;&lt;/pre&gt;" style="text;strokeColor=none;fillColor=none;align=left;verticalAlign=middle;spacingLeft=4;spacingRight=4;overflow=hidden;points=[[0,0.5],[1,0.5]];portConstraint=eastwest;rotatable=0;whiteSpace=wrap;html=1;labelBackgroundColor=none;fontColor=#393C56;" parent="GbpuS-4HLD2tTJXpjmer-0" vertex="1">
          <mxGeometry y="30" width="250" height="30" as="geometry" />
        </mxCell>
        <mxCell id="GbpuS-4HLD2tTJXpjmer-2" value="&lt;pre&gt;&lt;code class=&quot;!whitespace-pre hljs language-plaintext&quot;&gt;- nom: String&lt;/code&gt;&lt;/pre&gt;" style="text;strokeColor=none;fillColor=none;align=left;verticalAlign=middle;spacingLeft=4;spacingRight=4;overflow=hidden;points=[[0,0.5],[1,0.5]];portConstraint=eastwest;rotatable=0;whiteSpace=wrap;html=1;labelBackgroundColor=none;fontColor=#393C56;" parent="GbpuS-4HLD2tTJXpjmer-0" vertex="1">
          <mxGeometry y="60" width="250" height="30" as="geometry" />
        </mxCell>
        <mxCell id="GbpuS-4HLD2tTJXpjmer-3" value="&lt;pre&gt;&lt;code class=&quot;!whitespace-pre hljs language-plaintext&quot;&gt;- description: String&lt;/code&gt;&lt;/pre&gt;" style="text;strokeColor=none;fillColor=none;align=left;verticalAlign=middle;spacingLeft=4;spacingRight=4;overflow=hidden;points=[[0,0.5],[1,0.5]];portConstraint=eastwest;rotatable=0;whiteSpace=wrap;html=1;labelBackgroundColor=none;fontColor=#393C56;" parent="GbpuS-4HLD2tTJXpjmer-0" vertex="1">
          <mxGeometry y="90" width="250" height="30" as="geometry" />
        </mxCell>
        <mxCell id="GbpuS-4HLD2tTJXpjmer-4" value="&lt;pre&gt;&lt;code class=&quot;!whitespace-pre hljs language-plaintext&quot;&gt;- dateDebut: Date&lt;/code&gt;&lt;/pre&gt;" style="text;strokeColor=none;fillColor=none;align=left;verticalAlign=middle;spacingLeft=4;spacingRight=4;overflow=hidden;points=[[0,0.5],[1,0.5]];portConstraint=eastwest;rotatable=0;whiteSpace=wrap;html=1;labelBackgroundColor=none;fontColor=#393C56;" parent="GbpuS-4HLD2tTJXpjmer-0" vertex="1">
          <mxGeometry y="120" width="250" height="30" as="geometry" />
        </mxCell>
        <mxCell id="xCx7-iMAOptCChTL6jAP-1" value="&lt;pre&gt;&lt;code class=&quot;!whitespace-pre hljs language-plaintext&quot;&gt;- dateFin: Date&lt;/code&gt;&lt;/pre&gt;" style="text;strokeColor=none;fillColor=none;align=left;verticalAlign=middle;spacingLeft=4;spacingRight=4;overflow=hidden;points=[[0,0.5],[1,0.5]];portConstraint=eastwest;rotatable=0;whiteSpace=wrap;html=1;labelBackgroundColor=none;fontColor=#393C56;" parent="GbpuS-4HLD2tTJXpjmer-0" vertex="1">
          <mxGeometry y="150" width="250" height="30" as="geometry" />
        </mxCell>
        <mxCell id="GbpuS-4HLD2tTJXpjmer-28" value="&lt;pre&gt;&lt;br&gt;&lt;/pre&gt;" style="text;strokeColor=#E07A5F;fillColor=none;align=left;verticalAlign=middle;spacingLeft=4;spacingRight=4;overflow=hidden;points=[[0,0.5],[1,0.5]];portConstraint=eastwest;rotatable=0;whiteSpace=wrap;html=1;labelBackgroundColor=none;fontColor=#393C56;" parent="GbpuS-4HLD2tTJXpjmer-0" vertex="1">
          <mxGeometry y="180" width="250" as="geometry" />
        </mxCell>
        <mxCell id="GbpuS-4HLD2tTJXpjmer-57" value="&lt;pre&gt;&lt;code class=&quot;!whitespace-pre hljs language-plaintext&quot;&gt;Partenaire&lt;/code&gt;&lt;/pre&gt;" style="swimlane;fontStyle=0;childLayout=stackLayout;horizontal=1;startSize=30;horizontalStack=0;resizeParent=1;resizeParentMax=0;resizeLast=0;collapsible=1;marginBottom=0;whiteSpace=wrap;html=1;labelBackgroundColor=none;fillColor=#F2CC8F;strokeColor=#E07A5F;fontColor=#393C56;" parent="WIyWlLk6GJQsqaUBKTNV-1" vertex="1">
          <mxGeometry x="333.5" y="-2130" width="237" height="150" as="geometry" />
        </mxCell>
        <mxCell id="GbpuS-4HLD2tTJXpjmer-58" value="&lt;pre&gt;&lt;code class=&quot;!whitespace-pre hljs language-plaintext&quot;&gt;- id: String&lt;/code&gt;&lt;/pre&gt;" style="text;strokeColor=none;fillColor=none;align=left;verticalAlign=middle;spacingLeft=4;spacingRight=4;overflow=hidden;points=[[0,0.5],[1,0.5]];portConstraint=eastwest;rotatable=0;whiteSpace=wrap;html=1;labelBackgroundColor=none;fontColor=#393C56;" parent="GbpuS-4HLD2tTJXpjmer-57" vertex="1">
          <mxGeometry y="30" width="237" height="30" as="geometry" />
        </mxCell>
        <mxCell id="GbpuS-4HLD2tTJXpjmer-59" value="&lt;pre&gt;&lt;code class=&quot;!whitespace-pre hljs language-plaintext&quot;&gt;- nom: String&lt;/code&gt;&lt;/pre&gt;" style="text;strokeColor=none;fillColor=none;align=left;verticalAlign=middle;spacingLeft=4;spacingRight=4;overflow=hidden;points=[[0,0.5],[1,0.5]];portConstraint=eastwest;rotatable=0;whiteSpace=wrap;html=1;labelBackgroundColor=none;fontColor=#393C56;" parent="GbpuS-4HLD2tTJXpjmer-57" vertex="1">
          <mxGeometry y="60" width="237" height="30" as="geometry" />
        </mxCell>
        <mxCell id="GbpuS-4HLD2tTJXpjmer-60" value="&lt;pre&gt;&lt;code class=&quot;!whitespace-pre hljs language-plaintext&quot;&gt;- &lt;/code&gt;&lt;code class=&quot;!whitespace-pre hljs language-plaintext&quot;&gt;contribution&lt;/code&gt;&lt;code class=&quot;!whitespace-pre hljs language-plaintext&quot;&gt;: String&lt;/code&gt;&lt;/pre&gt;" style="text;strokeColor=none;fillColor=none;align=left;verticalAlign=middle;spacingLeft=4;spacingRight=4;overflow=hidden;points=[[0,0.5],[1,0.5]];portConstraint=eastwest;rotatable=0;whiteSpace=wrap;html=1;labelBackgroundColor=none;fontColor=#393C56;" parent="GbpuS-4HLD2tTJXpjmer-57" vertex="1">
          <mxGeometry y="90" width="237" height="30" as="geometry" />
        </mxCell>
        <mxCell id="GbpuS-4HLD2tTJXpjmer-61" value="&lt;pre&gt;&lt;code class=&quot;!whitespace-pre hljs language-plaintext&quot;&gt;- &lt;/code&gt;&lt;code class=&quot;!whitespace-pre hljs language-plaintext&quot;&gt;contraintes&lt;/code&gt;&lt;code class=&quot;!whitespace-pre hljs language-plaintext&quot;&gt;: &lt;/code&gt;&lt;code class=&quot;!whitespace-pre hljs language-plaintext&quot;&gt;String&lt;/code&gt;&lt;/pre&gt;" style="text;strokeColor=none;fillColor=none;align=left;verticalAlign=middle;spacingLeft=4;spacingRight=4;overflow=hidden;points=[[0,0.5],[1,0.5]];portConstraint=eastwest;rotatable=0;whiteSpace=wrap;html=1;labelBackgroundColor=none;fontColor=#393C56;" parent="GbpuS-4HLD2tTJXpjmer-57" vertex="1">
          <mxGeometry y="120" width="237" height="30" as="geometry" />
        </mxCell>
        <mxCell id="GbpuS-4HLD2tTJXpjmer-67" value="&lt;pre&gt;&lt;br&gt;&lt;/pre&gt;" style="text;strokeColor=#E07A5F;fillColor=none;align=left;verticalAlign=middle;spacingLeft=4;spacingRight=4;overflow=hidden;points=[[0,0.5],[1,0.5]];portConstraint=eastwest;rotatable=0;whiteSpace=wrap;html=1;labelBackgroundColor=none;fontColor=#393C56;" parent="GbpuS-4HLD2tTJXpjmer-57" vertex="1">
          <mxGeometry y="150" width="237" as="geometry" />
        </mxCell>
        <mxCell id="xCx7-iMAOptCChTL6jAP-3" value="&lt;div&gt;&lt;i&gt;Personne&lt;/i&gt;&lt;/div&gt;" style="swimlane;fontStyle=0;childLayout=stackLayout;horizontal=1;startSize=30;horizontalStack=0;resizeParent=1;resizeParentMax=0;resizeLast=0;collapsible=1;marginBottom=0;whiteSpace=wrap;html=1;labelBackgroundColor=none;fillColor=#F2CC8F;strokeColor=#E07A5F;fontColor=#393C56;" parent="WIyWlLk6GJQsqaUBKTNV-1" vertex="1">
          <mxGeometry x="-130" y="-1770" width="237" height="180" as="geometry" />
        </mxCell>
        <mxCell id="xCx7-iMAOptCChTL6jAP-4" value="&lt;pre&gt;&lt;code class=&quot;!whitespace-pre hljs language-plaintext&quot;&gt;- id: int&lt;/code&gt;&lt;/pre&gt;" style="text;strokeColor=none;fillColor=none;align=left;verticalAlign=middle;spacingLeft=4;spacingRight=4;overflow=hidden;points=[[0,0.5],[1,0.5]];portConstraint=eastwest;rotatable=0;whiteSpace=wrap;html=1;labelBackgroundColor=none;fontColor=#393C56;" parent="xCx7-iMAOptCChTL6jAP-3" vertex="1">
          <mxGeometry y="30" width="237" height="30" as="geometry" />
        </mxCell>
        <mxCell id="xCx7-iMAOptCChTL6jAP-5" value="&lt;pre&gt;&lt;code class=&quot;!whitespace-pre hljs language-plaintext&quot;&gt;- nom: String&lt;/code&gt;&lt;/pre&gt;" style="text;strokeColor=none;fillColor=none;align=left;verticalAlign=middle;spacingLeft=4;spacingRight=4;overflow=hidden;points=[[0,0.5],[1,0.5]];portConstraint=eastwest;rotatable=0;whiteSpace=wrap;html=1;labelBackgroundColor=none;fontColor=#393C56;" parent="xCx7-iMAOptCChTL6jAP-3" vertex="1">
          <mxGeometry y="60" width="237" height="30" as="geometry" />
        </mxCell>
        <mxCell id="xCx7-iMAOptCChTL6jAP-6" value="&lt;pre&gt;&lt;code class=&quot;!whitespace-pre hljs language-plaintext&quot;&gt;- prenom: String&lt;/code&gt;&lt;/pre&gt;" style="text;strokeColor=none;fillColor=none;align=left;verticalAlign=middle;spacingLeft=4;spacingRight=4;overflow=hidden;points=[[0,0.5],[1,0.5]];portConstraint=eastwest;rotatable=0;whiteSpace=wrap;html=1;labelBackgroundColor=none;fontColor=#393C56;" parent="xCx7-iMAOptCChTL6jAP-3" vertex="1">
          <mxGeometry y="90" width="237" height="30" as="geometry" />
        </mxCell>
        <mxCell id="xCx7-iMAOptCChTL6jAP-7" value="&lt;pre&gt;&lt;br&gt;&lt;/pre&gt;" style="text;strokeColor=#E07A5F;fillColor=none;align=left;verticalAlign=middle;spacingLeft=4;spacingRight=4;overflow=hidden;points=[[0,0.5],[1,0.5]];portConstraint=eastwest;rotatable=0;whiteSpace=wrap;html=1;labelBackgroundColor=none;fontColor=#393C56;" parent="xCx7-iMAOptCChTL6jAP-3" vertex="1">
          <mxGeometry y="120" width="237" as="geometry" />
        </mxCell>
        <mxCell id="xCx7-iMAOptCChTL6jAP-8" value="&lt;pre&gt;&lt;code class=&quot;!whitespace-pre hljs language-plaintext&quot;&gt;- age: int&lt;/code&gt;&lt;/pre&gt;" style="text;strokeColor=none;fillColor=none;align=left;verticalAlign=middle;spacingLeft=4;spacingRight=4;overflow=hidden;points=[[0,0.5],[1,0.5]];portConstraint=eastwest;rotatable=0;whiteSpace=wrap;html=1;labelBackgroundColor=none;fontColor=#393C56;" parent="xCx7-iMAOptCChTL6jAP-3" vertex="1">
          <mxGeometry y="120" width="237" height="30" as="geometry" />
        </mxCell>
        <mxCell id="xCx7-iMAOptCChTL6jAP-9" value="&lt;pre&gt;&lt;code class=&quot;!whitespace-pre hljs language-plaintext&quot;&gt;- role: String&lt;/code&gt;&lt;/pre&gt;" style="text;strokeColor=none;fillColor=none;align=left;verticalAlign=middle;spacingLeft=4;spacingRight=4;overflow=hidden;points=[[0,0.5],[1,0.5]];portConstraint=eastwest;rotatable=0;whiteSpace=wrap;html=1;labelBackgroundColor=none;fontColor=#393C56;" parent="xCx7-iMAOptCChTL6jAP-3" vertex="1">
          <mxGeometry y="150" width="237" height="30" as="geometry" />
        </mxCell>
        <mxCell id="xCx7-iMAOptCChTL6jAP-12" value="Participant" style="swimlane;fontStyle=0;childLayout=stackLayout;horizontal=1;startSize=30;horizontalStack=0;resizeParent=1;resizeParentMax=0;resizeLast=0;collapsible=1;marginBottom=0;whiteSpace=wrap;html=1;labelBackgroundColor=none;fillColor=#F2CC8F;strokeColor=#E07A5F;fontColor=#393C56;" parent="WIyWlLk6GJQsqaUBKTNV-1" vertex="1">
          <mxGeometry x="-256.5" y="-1470" width="170" height="30" as="geometry" />
        </mxCell>
        <mxCell id="xCx7-iMAOptCChTL6jAP-16" value="&lt;pre&gt;&lt;br&gt;&lt;/pre&gt;" style="text;strokeColor=#E07A5F;fillColor=none;align=left;verticalAlign=middle;spacingLeft=4;spacingRight=4;overflow=hidden;points=[[0,0.5],[1,0.5]];portConstraint=eastwest;rotatable=0;whiteSpace=wrap;html=1;labelBackgroundColor=none;fontColor=#393C56;" parent="xCx7-iMAOptCChTL6jAP-12" vertex="1">
          <mxGeometry y="30" width="170" as="geometry" />
        </mxCell>
        <mxCell id="xCx7-iMAOptCChTL6jAP-24" value="Jury" style="swimlane;fontStyle=0;childLayout=stackLayout;horizontal=1;startSize=30;horizontalStack=0;resizeParent=1;resizeParentMax=0;resizeLast=0;collapsible=1;marginBottom=0;whiteSpace=wrap;html=1;labelBackgroundColor=none;fillColor=#F2CC8F;strokeColor=#E07A5F;fontColor=#393C56;" parent="WIyWlLk6GJQsqaUBKTNV-1" vertex="1">
          <mxGeometry x="93.5" y="-1500" width="130" height="60" as="geometry" />
        </mxCell>
        <mxCell id="xCx7-iMAOptCChTL6jAP-27" value="&lt;pre&gt;&lt;code class=&quot;!whitespace-pre hljs language-plaintext&quot;&gt;- note: int&lt;br&gt;&lt;/code&gt;&lt;/pre&gt;" style="text;strokeColor=none;fillColor=none;align=left;verticalAlign=middle;spacingLeft=4;spacingRight=4;overflow=hidden;points=[[0,0.5],[1,0.5]];portConstraint=eastwest;rotatable=0;whiteSpace=wrap;html=1;labelBackgroundColor=none;fontColor=#393C56;" parent="xCx7-iMAOptCChTL6jAP-24" vertex="1">
          <mxGeometry y="30" width="130" height="30" as="geometry" />
        </mxCell>
        <mxCell id="xCx7-iMAOptCChTL6jAP-26" value="&lt;pre&gt;&lt;br&gt;&lt;/pre&gt;" style="text;strokeColor=#E07A5F;fillColor=none;align=left;verticalAlign=middle;spacingLeft=4;spacingRight=4;overflow=hidden;points=[[0,0.5],[1,0.5]];portConstraint=eastwest;rotatable=0;whiteSpace=wrap;html=1;labelBackgroundColor=none;fontColor=#393C56;" parent="xCx7-iMAOptCChTL6jAP-24" vertex="1">
          <mxGeometry y="60" width="130" as="geometry" />
        </mxCell>
        <mxCell id="xCx7-iMAOptCChTL6jAP-63" value="Classement" style="swimlane;fontStyle=0;childLayout=stackLayout;horizontal=1;startSize=30;horizontalStack=0;resizeParent=1;resizeParentMax=0;resizeLast=0;collapsible=1;marginBottom=0;whiteSpace=wrap;html=1;labelBackgroundColor=none;fillColor=#F2CC8F;strokeColor=#E07A5F;fontColor=#393C56;" parent="WIyWlLk6GJQsqaUBKTNV-1" vertex="1">
          <mxGeometry x="-546.5" y="-1940" width="210" height="90" as="geometry" />
        </mxCell>
        <mxCell id="xCx7-iMAOptCChTL6jAP-64" value="&lt;pre&gt;&lt;code class=&quot;!whitespace-pre hljs language-plaintext&quot;&gt;- position: int&lt;br&gt;&lt;/code&gt;&lt;/pre&gt;" style="text;strokeColor=none;fillColor=none;align=left;verticalAlign=middle;spacingLeft=4;spacingRight=4;overflow=hidden;points=[[0,0.5],[1,0.5]];portConstraint=eastwest;rotatable=0;whiteSpace=wrap;html=1;labelBackgroundColor=none;fontColor=#393C56;" parent="xCx7-iMAOptCChTL6jAP-63" vertex="1">
          <mxGeometry y="30" width="210" height="30" as="geometry" />
        </mxCell>
        <mxCell id="xCx7-iMAOptCChTL6jAP-65" value="&lt;pre&gt;&lt;br&gt;&lt;/pre&gt;" style="text;strokeColor=#E07A5F;fillColor=none;align=left;verticalAlign=middle;spacingLeft=4;spacingRight=4;overflow=hidden;points=[[0,0.5],[1,0.5]];portConstraint=eastwest;rotatable=0;whiteSpace=wrap;html=1;labelBackgroundColor=none;fontColor=#393C56;" parent="xCx7-iMAOptCChTL6jAP-63" vertex="1">
          <mxGeometry y="60" width="210" as="geometry" />
        </mxCell>
        <mxCell id="xCx7-iMAOptCChTL6jAP-83" value="&lt;pre&gt;&lt;code class=&quot;!whitespace-pre hljs language-plaintext&quot;&gt;- podium: List&amp;lt;Participant&amp;gt;&lt;/code&gt;&lt;/pre&gt;" style="text;strokeColor=none;fillColor=none;align=left;verticalAlign=middle;spacingLeft=4;spacingRight=4;overflow=hidden;points=[[0,0.5],[1,0.5]];portConstraint=eastwest;rotatable=0;whiteSpace=wrap;html=1;labelBackgroundColor=none;fontColor=#393C56;" parent="xCx7-iMAOptCChTL6jAP-63" vertex="1">
          <mxGeometry y="60" width="210" height="30" as="geometry" />
        </mxCell>
        <mxCell id="xCx7-iMAOptCChTL6jAP-82" value="" style="endArrow=classic;html=1;rounded=0;entryX=1.026;entryY=0.785;entryDx=0;entryDy=0;exitX=0;exitY=0.5;exitDx=0;exitDy=0;labelBackgroundColor=none;strokeColor=#E07A5F;fontColor=default;entryPerimeter=0;" parent="WIyWlLk6GJQsqaUBKTNV-1" source="GbpuS-4HLD2tTJXpjmer-4" target="xCx7-iMAOptCChTL6jAP-64" edge="1">
          <mxGeometry width="50" height="50" relative="1" as="geometry">
            <mxPoint x="-266.5" y="-1470" as="sourcePoint" />
            <mxPoint x="-221.5" y="-800" as="targetPoint" />
          </mxGeometry>
        </mxCell>
        <mxCell id="oBwvq78yPTtqkTnDhpz7-28" value="classement" style="edgeLabel;html=1;align=center;verticalAlign=middle;resizable=0;points=[];strokeColor=#E07A5F;fontColor=#393C56;fillColor=#F2CC8F;" parent="xCx7-iMAOptCChTL6jAP-82" vertex="1" connectable="0">
          <mxGeometry x="0.5763" y="1" relative="1" as="geometry">
            <mxPoint x="-7" y="-17" as="offset" />
          </mxGeometry>
        </mxCell>
        <mxCell id="oBwvq78yPTtqkTnDhpz7-29" value="1..1" style="edgeLabel;html=1;align=center;verticalAlign=middle;resizable=0;points=[];strokeColor=#E07A5F;fontColor=#393C56;fillColor=#F2CC8F;" parent="xCx7-iMAOptCChTL6jAP-82" vertex="1" connectable="0">
          <mxGeometry x="0.2746" y="3" relative="1" as="geometry">
            <mxPoint x="-45" y="25" as="offset" />
          </mxGeometry>
        </mxCell>
        <mxCell id="remCu9kLL4KxYXn9OIg0-0" value="Categorie" style="swimlane;fontStyle=0;childLayout=stackLayout;horizontal=1;startSize=30;horizontalStack=0;resizeParent=1;resizeParentMax=0;resizeLast=0;collapsible=1;marginBottom=0;whiteSpace=wrap;html=1;labelBackgroundColor=none;fillColor=#F2CC8F;strokeColor=#E07A5F;fontColor=#393C56;" parent="WIyWlLk6GJQsqaUBKTNV-1" vertex="1">
          <mxGeometry x="333.5" y="-1940" width="237" height="90" as="geometry" />
        </mxCell>
        <mxCell id="remCu9kLL4KxYXn9OIg0-2" value="&lt;pre&gt;&lt;code class=&quot;!whitespace-pre hljs language-plaintext&quot;&gt;- nom: String&lt;/code&gt;&lt;/pre&gt;" style="text;strokeColor=none;fillColor=none;align=left;verticalAlign=middle;spacingLeft=4;spacingRight=4;overflow=hidden;points=[[0,0.5],[1,0.5]];portConstraint=eastwest;rotatable=0;whiteSpace=wrap;html=1;labelBackgroundColor=none;fontColor=#393C56;" parent="remCu9kLL4KxYXn9OIg0-0" vertex="1">
          <mxGeometry y="30" width="237" height="30" as="geometry" />
        </mxCell>
        <mxCell id="remCu9kLL4KxYXn9OIg0-3" value="&lt;pre&gt;&lt;code class=&quot;!whitespace-pre hljs language-plaintext&quot;&gt;- sousCategories: List&amp;lt;String&amp;gt;&lt;/code&gt;&lt;/pre&gt;" style="text;strokeColor=none;fillColor=none;align=left;verticalAlign=middle;spacingLeft=4;spacingRight=4;overflow=hidden;points=[[0,0.5],[1,0.5]];portConstraint=eastwest;rotatable=0;whiteSpace=wrap;html=1;labelBackgroundColor=none;fontColor=#393C56;" parent="remCu9kLL4KxYXn9OIg0-0" vertex="1">
          <mxGeometry y="60" width="237" height="30" as="geometry" />
        </mxCell>
        <mxCell id="remCu9kLL4KxYXn9OIg0-5" value="&lt;pre&gt;&lt;br&gt;&lt;/pre&gt;" style="text;strokeColor=#E07A5F;fillColor=none;align=left;verticalAlign=middle;spacingLeft=4;spacingRight=4;overflow=hidden;points=[[0,0.5],[1,0.5]];portConstraint=eastwest;rotatable=0;whiteSpace=wrap;html=1;labelBackgroundColor=none;fontColor=#393C56;" parent="remCu9kLL4KxYXn9OIg0-0" vertex="1">
          <mxGeometry y="90" width="237" as="geometry" />
        </mxCell>
        <mxCell id="remCu9kLL4KxYXn9OIg0-13" value="" style="endArrow=classic;html=1;rounded=0;exitX=1.002;exitY=-0.051;exitDx=0;exitDy=0;exitPerimeter=0;entryX=0;entryY=0;entryDx=0;entryDy=0;entryPerimeter=0;labelBackgroundColor=none;strokeColor=#E07A5F;fontColor=default;" parent="WIyWlLk6GJQsqaUBKTNV-1" source="xCx7-iMAOptCChTL6jAP-1" target="remCu9kLL4KxYXn9OIg0-3" edge="1">
          <mxGeometry width="50" height="50" relative="1" as="geometry">
            <mxPoint x="116.5" y="-1730.9999999999998" as="sourcePoint" />
            <mxPoint x="235.5" y="-1463" as="targetPoint" />
          </mxGeometry>
        </mxCell>
        <mxCell id="oBwvq78yPTtqkTnDhpz7-10" value="catégories" style="edgeLabel;html=1;align=center;verticalAlign=middle;resizable=0;points=[];labelBackgroundColor=none;fontColor=#393C56;" parent="remCu9kLL4KxYXn9OIg0-13" vertex="1" connectable="0">
          <mxGeometry x="0.5721" y="1" relative="1" as="geometry">
            <mxPoint x="17" y="-12" as="offset" />
          </mxGeometry>
        </mxCell>
        <mxCell id="oBwvq78yPTtqkTnDhpz7-15" value="1..*" style="edgeLabel;html=1;align=center;verticalAlign=middle;resizable=0;points=[];strokeColor=#E07A5F;fontColor=#393C56;fillColor=#F2CC8F;" parent="remCu9kLL4KxYXn9OIg0-13" vertex="1" connectable="0">
          <mxGeometry x="0.7167" y="-1" relative="1" as="geometry">
            <mxPoint y="14" as="offset" />
          </mxGeometry>
        </mxCell>
        <mxCell id="remCu9kLL4KxYXn9OIg0-20" value="Lieu" style="swimlane;fontStyle=0;childLayout=stackLayout;horizontal=1;startSize=30;horizontalStack=0;resizeParent=1;resizeParentMax=0;resizeLast=0;collapsible=1;marginBottom=0;whiteSpace=wrap;html=1;labelBackgroundColor=none;fillColor=#F2CC8F;strokeColor=#E07A5F;fontColor=#393C56;" parent="WIyWlLk6GJQsqaUBKTNV-1" vertex="1">
          <mxGeometry x="-560" y="-2080" width="237" height="90" as="geometry" />
        </mxCell>
        <mxCell id="remCu9kLL4KxYXn9OIg0-21" value="&lt;pre&gt;&lt;code class=&quot;!whitespace-pre hljs language-plaintext&quot;&gt;- nom: String&lt;/code&gt;&lt;/pre&gt;" style="text;strokeColor=none;fillColor=none;align=left;verticalAlign=middle;spacingLeft=4;spacingRight=4;overflow=hidden;points=[[0,0.5],[1,0.5]];portConstraint=eastwest;rotatable=0;whiteSpace=wrap;html=1;labelBackgroundColor=none;fontColor=#393C56;" parent="remCu9kLL4KxYXn9OIg0-20" vertex="1">
          <mxGeometry y="30" width="237" height="30" as="geometry" />
        </mxCell>
        <mxCell id="remCu9kLL4KxYXn9OIg0-22" value="&lt;pre&gt;&lt;code class=&quot;!whitespace-pre hljs language-plaintext&quot;&gt;- capacite: int&lt;/code&gt;&lt;/pre&gt;" style="text;strokeColor=none;fillColor=none;align=left;verticalAlign=middle;spacingLeft=4;spacingRight=4;overflow=hidden;points=[[0,0.5],[1,0.5]];portConstraint=eastwest;rotatable=0;whiteSpace=wrap;html=1;labelBackgroundColor=none;fontColor=#393C56;" parent="remCu9kLL4KxYXn9OIg0-20" vertex="1">
          <mxGeometry y="60" width="237" height="30" as="geometry" />
        </mxCell>
        <mxCell id="remCu9kLL4KxYXn9OIg0-23" value="&lt;pre&gt;&lt;br&gt;&lt;/pre&gt;" style="text;strokeColor=#E07A5F;fillColor=none;align=left;verticalAlign=middle;spacingLeft=4;spacingRight=4;overflow=hidden;points=[[0,0.5],[1,0.5]];portConstraint=eastwest;rotatable=0;whiteSpace=wrap;html=1;labelBackgroundColor=none;fontColor=#393C56;" parent="remCu9kLL4KxYXn9OIg0-20" vertex="1">
          <mxGeometry y="90" width="237" as="geometry" />
        </mxCell>
        <mxCell id="remCu9kLL4KxYXn9OIg0-25" value="" style="endArrow=classic;html=1;rounded=0;exitX=0;exitY=0.5;exitDx=0;exitDy=0;entryX=1;entryY=0.5;entryDx=0;entryDy=0;labelBackgroundColor=none;strokeColor=#E07A5F;fontColor=default;" parent="WIyWlLk6GJQsqaUBKTNV-1" source="GbpuS-4HLD2tTJXpjmer-2" target="remCu9kLL4KxYXn9OIg0-21" edge="1">
          <mxGeometry width="50" height="50" relative="1" as="geometry">
            <mxPoint x="-246.5" y="-1950" as="sourcePoint" />
            <mxPoint x="-296.5" y="-1950" as="targetPoint" />
            <Array as="points" />
          </mxGeometry>
        </mxCell>
        <mxCell id="oBwvq78yPTtqkTnDhpz7-30" value="lieu" style="edgeLabel;html=1;align=center;verticalAlign=middle;resizable=0;points=[];strokeColor=#E07A5F;fontColor=#393C56;fillColor=#F2CC8F;" parent="remCu9kLL4KxYXn9OIg0-25" vertex="1" connectable="0">
          <mxGeometry x="0.6758" relative="1" as="geometry">
            <mxPoint x="-3" y="-13" as="offset" />
          </mxGeometry>
        </mxCell>
        <mxCell id="oBwvq78yPTtqkTnDhpz7-31" value="1..1" style="edgeLabel;html=1;align=center;verticalAlign=middle;resizable=0;points=[];strokeColor=#E07A5F;fontColor=#393C56;fillColor=#F2CC8F;" parent="remCu9kLL4KxYXn9OIg0-25" vertex="1" connectable="0">
          <mxGeometry x="0.3659" relative="1" as="geometry">
            <mxPoint x="-32" y="9" as="offset" />
          </mxGeometry>
        </mxCell>
        <mxCell id="remCu9kLL4KxYXn9OIg0-29" value="" style="endArrow=classic;html=1;rounded=0;exitX=0;exitY=0.5;exitDx=0;exitDy=0;entryX=1;entryY=0.5;entryDx=0;entryDy=0;labelBackgroundColor=none;strokeColor=#E07A5F;fontColor=default;" parent="WIyWlLk6GJQsqaUBKTNV-1" source="xCx7-iMAOptCChTL6jAP-27" target="xCx7-iMAOptCChTL6jAP-12" edge="1">
          <mxGeometry width="50" height="50" relative="1" as="geometry">
            <mxPoint x="43.5" y="-1270" as="sourcePoint" />
            <mxPoint x="68.5" y="-1315" as="targetPoint" />
          </mxGeometry>
        </mxCell>
        <mxCell id="oBwvq78yPTtqkTnDhpz7-26" value="participants" style="edgeLabel;html=1;align=center;verticalAlign=middle;resizable=0;points=[];strokeColor=#E07A5F;fontColor=#393C56;fillColor=#F2CC8F;" parent="remCu9kLL4KxYXn9OIg0-29" vertex="1" connectable="0">
          <mxGeometry x="0.1123" y="-3" relative="1" as="geometry">
            <mxPoint x="-40" y="-12" as="offset" />
          </mxGeometry>
        </mxCell>
        <mxCell id="oBwvq78yPTtqkTnDhpz7-27" value="1..*" style="edgeLabel;html=1;align=center;verticalAlign=middle;resizable=0;points=[];strokeColor=#E07A5F;fontColor=#393C56;fillColor=#F2CC8F;" parent="remCu9kLL4KxYXn9OIg0-29" vertex="1" connectable="0">
          <mxGeometry x="-0.0111" y="1" relative="1" as="geometry">
            <mxPoint x="-71" y="14" as="offset" />
          </mxGeometry>
        </mxCell>
        <mxCell id="oBwvq78yPTtqkTnDhpz7-5" value="" style="endArrow=none;html=1;rounded=0;exitX=1;exitY=0.5;exitDx=0;exitDy=0;entryX=0;entryY=0.5;entryDx=0;entryDy=0;labelBackgroundColor=none;strokeColor=#E07A5F;fontColor=default;" parent="WIyWlLk6GJQsqaUBKTNV-1" source="GbpuS-4HLD2tTJXpjmer-1" target="GbpuS-4HLD2tTJXpjmer-59" edge="1">
          <mxGeometry width="50" height="50" relative="1" as="geometry">
            <mxPoint x="163.5" y="-2020" as="sourcePoint" />
            <mxPoint x="213.5" y="-2070" as="targetPoint" />
          </mxGeometry>
        </mxCell>
        <mxCell id="oBwvq78yPTtqkTnDhpz7-6" value="partenaires" style="edgeLabel;html=1;align=center;verticalAlign=middle;resizable=0;points=[];labelBackgroundColor=none;fontColor=#393C56;" parent="oBwvq78yPTtqkTnDhpz7-5" vertex="1" connectable="0">
          <mxGeometry x="0.4737" y="2" relative="1" as="geometry">
            <mxPoint x="28" y="-13" as="offset" />
          </mxGeometry>
        </mxCell>
        <mxCell id="oBwvq78yPTtqkTnDhpz7-9" value="0..*" style="edgeLabel;html=1;align=center;verticalAlign=middle;resizable=0;points=[];labelBackgroundColor=none;fontColor=#393C56;" parent="oBwvq78yPTtqkTnDhpz7-5" vertex="1" connectable="0">
          <mxGeometry x="0.3121" y="2" relative="1" as="geometry">
            <mxPoint x="56" y="17" as="offset" />
          </mxGeometry>
        </mxCell>
        <mxCell id="oBwvq78yPTtqkTnDhpz7-13" value="événements" style="edgeLabel;html=1;align=center;verticalAlign=middle;resizable=0;points=[];labelBackgroundColor=none;fontColor=#393C56;" parent="oBwvq78yPTtqkTnDhpz7-5" vertex="1" connectable="0">
          <mxGeometry x="-0.6664" y="1" relative="1" as="geometry">
            <mxPoint y="-17" as="offset" />
          </mxGeometry>
        </mxCell>
        <mxCell id="oBwvq78yPTtqkTnDhpz7-14" value="0..*" style="edgeLabel;html=1;align=center;verticalAlign=middle;resizable=0;points=[];labelBackgroundColor=none;fontColor=#393C56;" parent="oBwvq78yPTtqkTnDhpz7-5" vertex="1" connectable="0">
          <mxGeometry x="-0.5962" relative="1" as="geometry">
            <mxPoint x="-25" y="23" as="offset" />
          </mxGeometry>
        </mxCell>
        <mxCell id="oBwvq78yPTtqkTnDhpz7-17" value="" style="endArrow=classic;html=1;rounded=0;strokeColor=#E07A5F;fontColor=#393C56;fillColor=#F2CC8F;entryX=0.5;entryY=0;entryDx=0;entryDy=0;exitX=0;exitY=0.5;exitDx=0;exitDy=0;" parent="WIyWlLk6GJQsqaUBKTNV-1" source="GbpuS-4HLD2tTJXpjmer-28" target="xCx7-iMAOptCChTL6jAP-3" edge="1">
          <mxGeometry width="50" height="50" relative="1" as="geometry">
            <mxPoint x="-6.5" y="-1870" as="sourcePoint" />
            <mxPoint x="53.5" y="-1860" as="targetPoint" />
          </mxGeometry>
        </mxCell>
        <mxCell id="oBwvq78yPTtqkTnDhpz7-18" value="personnes" style="edgeLabel;html=1;align=center;verticalAlign=middle;resizable=0;points=[];strokeColor=#E07A5F;fontColor=#393C56;fillColor=#F2CC8F;" parent="oBwvq78yPTtqkTnDhpz7-17" vertex="1" connectable="0">
          <mxGeometry x="0.3374" y="-1" relative="1" as="geometry">
            <mxPoint x="-34" y="17" as="offset" />
          </mxGeometry>
        </mxCell>
        <mxCell id="oBwvq78yPTtqkTnDhpz7-20" value="10..*" style="edgeLabel;html=1;align=center;verticalAlign=middle;resizable=0;points=[];strokeColor=#E07A5F;fontColor=#393C56;fillColor=#F2CC8F;" parent="oBwvq78yPTtqkTnDhpz7-17" vertex="1" connectable="0">
          <mxGeometry x="0.398" y="2" relative="1" as="geometry">
            <mxPoint x="23" y="13" as="offset" />
          </mxGeometry>
        </mxCell>
        <mxCell id="oBwvq78yPTtqkTnDhpz7-22" value="" style="shape=flexArrow;endArrow=classic;html=1;rounded=0;strokeColor=#E07A5F;fontColor=#393C56;fillColor=#F2CC8F;exitX=0.5;exitY=0;exitDx=0;exitDy=0;entryX=0.166;entryY=1.037;entryDx=0;entryDy=0;entryPerimeter=0;" parent="WIyWlLk6GJQsqaUBKTNV-1" source="xCx7-iMAOptCChTL6jAP-12" target="xCx7-iMAOptCChTL6jAP-9" edge="1">
          <mxGeometry width="50" height="50" relative="1" as="geometry">
            <mxPoint x="-116.5" y="-1520" as="sourcePoint" />
            <mxPoint x="-66.5" y="-1570" as="targetPoint" />
          </mxGeometry>
        </mxCell>
        <mxCell id="oBwvq78yPTtqkTnDhpz7-24" value="" style="shape=flexArrow;endArrow=classic;html=1;rounded=0;strokeColor=#E07A5F;fontColor=#393C56;fillColor=#F2CC8F;exitX=0.5;exitY=0;exitDx=0;exitDy=0;entryX=0.898;entryY=1.007;entryDx=0;entryDy=0;entryPerimeter=0;" parent="WIyWlLk6GJQsqaUBKTNV-1" source="xCx7-iMAOptCChTL6jAP-24" target="xCx7-iMAOptCChTL6jAP-9" edge="1">
          <mxGeometry width="50" height="50" relative="1" as="geometry">
            <mxPoint x="83.5" y="-1500" as="sourcePoint" />
            <mxPoint x="133.5" y="-1550" as="targetPoint" />
          </mxGeometry>
        </mxCell>
        <mxCell id="oBwvq78yPTtqkTnDhpz7-32" value="Peut-etre bidirectionnelle ?&lt;div&gt;Pour dire qu&#39;il y a un concours dans un lieu&amp;nbsp;&lt;span style=&quot;background-color: initial;&quot;&gt;afin de ne&amp;nbsp;&lt;/span&gt;&lt;span style=&quot;background-color: initial;&quot;&gt;pas&amp;nbsp;&lt;/span&gt;&lt;/div&gt;&lt;div&gt;&lt;span style=&quot;background-color: initial;&quot;&gt;autoriser la&amp;nbsp;&lt;/span&gt;&lt;span style=&quot;background-color: initial;&quot;&gt;création d&#39;&lt;/span&gt;&lt;span style=&quot;background-color: initial;&quot;&gt;un autre concours dans le même lieu&lt;/span&gt;&lt;/div&gt;" style="text;html=1;align=center;verticalAlign=middle;resizable=0;points=[];autosize=1;strokeColor=none;fillColor=none;fontColor=#393C56;" parent="WIyWlLk6GJQsqaUBKTNV-1" vertex="1">
          <mxGeometry x="-391.5" y="-2160" width="340" height="60" as="geometry" />
        </mxCell>
        <mxCell id="oBwvq78yPTtqkTnDhpz7-34" value="" style="endArrow=classic;startArrow=classic;html=1;rounded=0;strokeColor=#E07A5F;fontColor=#393C56;fillColor=#F2CC8F;entryX=0.503;entryY=1.03;entryDx=0;entryDy=0;entryPerimeter=0;" parent="WIyWlLk6GJQsqaUBKTNV-1" target="oBwvq78yPTtqkTnDhpz7-32" edge="1">
          <mxGeometry width="50" height="50" relative="1" as="geometry">
            <mxPoint x="-216.5" y="-2010" as="sourcePoint" />
            <mxPoint x="-176.5" y="-2110" as="targetPoint" />
          </mxGeometry>
        </mxCell>
      </root>
    </mxGraphModel>
  </diagram>
</mxfile>
